<?xml version="1.0" encoding="UTF-8" standalone="no"?>
<!-- Created with Inkscape (http://www.inkscape.org/) -->

<svg
   width="210mm"
   height="297mm"
   viewBox="0 0 210 297"
   version="1.1"
   id="svg915"
   xmlns="http://www.w3.org/2000/svg"
   xmlns:svg="http://www.w3.org/2000/svg">
  <defs
     id="defs912" />
  <g
     id="layer1">
    <path
       d="m 108.52354,82.340272 c -21.247603,-0.009 -38.457036,18.842998 -38.457036,42.111888 0,18.40041 10.76556,34.0417 25.758303,39.78595 2.01908,0.55559 1.70978,-1.01702 1.70978,-2.09053 v -7.29802 c -11.65911,1.49727 -12.13167,-6.959 -12.91352,-8.37152 -1.5809,-2.95688 -5.318343,-3.71022 -4.201413,-5.12274 2.654883,-1.49727 5.361313,0.37668 8.497323,5.45233 2.26825,3.68196 6.69304,3.06045 8.9355,2.44836 0.48974,-2.21294 1.53794,-4.19047 2.981373,-5.72541 -12.080113,-2.37303 -17.114923,-10.45264 -17.114923,-20.05776 0,-4.66132 1.40046,-8.94596 4.14985,-12.40192 -1.75273,-5.69716 0.16324,-10.57506 0.421,-11.300148 4.99185,-0.48967 10.18132,3.917388 10.58513,4.265798 2.835303,-0.83809 6.074433,-1.28068 9.700183,-1.28068 3.64293,0 6.89065,0.46143 9.75172,1.30894 0.97088,-0.80985 5.7823,-4.595398 10.42189,-4.133968 0.24916,0.725088 2.12218,5.489988 0.47255,11.111808 2.78376,3.46538 4.20141,7.78769 4.20141,12.45841 0,9.62397 -5.06918,17.71299 -17.18366,20.04835 a 10.954582,12.006409 0 0 1 3.27349,8.56929 v 10.59388 c 0.0687,0.84752 0,1.68561 1.28877,1.68561 15.21613,-5.62182 26.17071,-21.37611 26.17071,-39.93661 0,-23.27831 -17.21803,-42.121308 -38.44843,-42.121308 z"
       id="path999-4"
       style="fill:#ff0000;stroke-width:0.0899485" />
  </g>
</svg>
