<?xml version="1.0" standalone="no"?>
<!DOCTYPE svg PUBLIC "-//W3C//DTD SVG 20010904//EN"
 "http://www.w3.org/TR/2001/REC-SVG-20010904/DTD/svg10.dtd">
<svg version="1.0" xmlns="http://www.w3.org/2000/svg"
 width="501.000000pt" height="501.000000pt" viewBox="0 0 501.000000 501.000000"
 preserveAspectRatio="xMidYMid meet">

<g transform="translate(0.000000,501.000000) scale(0.100000,-0.100000)"
fill="#000000" stroke="none">
<path d="M2430 2494 c-70 -24 -112 -77 -116 -145 -1 -29 3 -52 10 -59 8 -6 12
-29 11 -56 -1 -40 -7 -51 -41 -81 -33 -30 -36 -34 -15 -29 18 4 21 2 12 -7 -6
-6 -11 -17 -11 -25 0 -12 3 -12 15 -2 9 7 18 10 22 6 10 -9 9 -251 0 -318 l-8
-58 28 0 c21 0 33 8 46 32 l19 33 13 -24 13 -24 15 29 c9 16 16 23 17 17 0 -7
7 -13 15 -13 10 0 15 10 15 30 0 17 3 30 6 30 12 0 34 -29 34 -45 0 -9 6 -15
13 -13 7 3 13 25 15 52 3 38 -4 63 -32 121 -41 84 -57 138 -35 118 22 -22 30
-14 15 15 -14 25 -13 28 12 49 22 18 24 22 9 23 -16 0 -43 47 -34 57 3 2 18
-4 35 -14 25 -14 34 -15 56 -5 15 6 31 24 36 39 6 16 14 35 19 44 6 11 5 21
-4 30 -7 8 -18 32 -24 53 -9 33 -8 41 6 51 19 14 11 45 -12 45 -9 0 -35 8 -58
19 -49 22 -96 32 -117 25z"/>
<path d="M2606 2031 c-17 -19 -17 -25 12 -148 17 -70 32 -141 34 -158 3 -26 7
-30 36 -33 45 -4 67 4 54 21 -9 11 -66 194 -92 295 -12 47 -19 51 -44 23z"/>
</g>
</svg>
